<mxfile host="app.diagrams.net" modified="2024-06-03T16:00:16.633Z" agent="Mozilla/5.0 (Windows NT 10.0; Win64; x64) AppleWebKit/537.36 (KHTML, like Gecko) Chrome/125.0.0.0 Safari/537.36" etag="xpdjHheAo-ZkWc6tzu8T" version="24.4.13" type="device">
  <diagram name="PÃ¡gina-1" id="5l8cFwLkJZpHJHrZ6Pb7">
    <mxGraphModel dx="1290" dy="569" grid="1" gridSize="10" guides="1" tooltips="1" connect="1" arrows="1" fold="1" page="1" pageScale="1" pageWidth="827" pageHeight="1169" math="0" shadow="0">
      <root>
        <mxCell id="0" />
        <mxCell id="1" parent="0" />
        <mxCell id="3rmnvMn9BiSxdyDmNAFS-1" value="Propietario" style="rounded=0;whiteSpace=wrap;html=1;" vertex="1" parent="1">
          <mxGeometry x="50" y="70" width="120" height="60" as="geometry" />
        </mxCell>
        <mxCell id="3rmnvMn9BiSxdyDmNAFS-2" value="Mascota" style="rounded=0;whiteSpace=wrap;html=1;" vertex="1" parent="1">
          <mxGeometry x="50" y="280" width="120" height="60" as="geometry" />
        </mxCell>
        <mxCell id="3rmnvMn9BiSxdyDmNAFS-3" value="es" style="triangle;whiteSpace=wrap;html=1;" vertex="1" parent="1">
          <mxGeometry x="240" y="285" width="30" height="50" as="geometry" />
        </mxCell>
        <mxCell id="3rmnvMn9BiSxdyDmNAFS-4" value="Mamifero" style="rounded=0;whiteSpace=wrap;html=1;" vertex="1" parent="1">
          <mxGeometry x="340" y="60" width="120" height="60" as="geometry" />
        </mxCell>
        <mxCell id="3rmnvMn9BiSxdyDmNAFS-5" value="Ave&lt;span style=&quot;color: rgba(0, 0, 0, 0); font-family: monospace; font-size: 0px; text-align: start; text-wrap: nowrap;&quot;&gt;%3CmxGraphModel%3E%3Croot%3E%3CmxCell%20id%3D%220%22%2F%3E%3CmxCell%20id%3D%221%22%20parent%3D%220%22%2F%3E%3CmxCell%20id%3D%222%22%20value%3D%22Propietario%22%20style%3D%22rounded%3D0%3BwhiteSpace%3Dwrap%3Bhtml%3D1%3B%22%20vertex%3D%221%22%20parent%3D%221%22%3E%3CmxGeometry%20x%3D%2280%22%20y%3D%22140%22%20width%3D%22120%22%20height%3D%2260%22%20as%3D%22geometry%22%2F%3E%3C%2FmxCell%3E%3C%2Froot%3E%3C%2FmxGraphModel%3E&lt;/span&gt;" style="rounded=0;whiteSpace=wrap;html=1;" vertex="1" parent="1">
          <mxGeometry x="340" y="155" width="120" height="60" as="geometry" />
        </mxCell>
        <mxCell id="3rmnvMn9BiSxdyDmNAFS-6" value="Reptil" style="rounded=0;whiteSpace=wrap;html=1;" vertex="1" parent="1">
          <mxGeometry x="340" y="250" width="120" height="60" as="geometry" />
        </mxCell>
        <mxCell id="3rmnvMn9BiSxdyDmNAFS-7" value="Pez" style="rounded=0;whiteSpace=wrap;html=1;" vertex="1" parent="1">
          <mxGeometry x="340" y="350" width="120" height="60" as="geometry" />
        </mxCell>
        <mxCell id="3rmnvMn9BiSxdyDmNAFS-8" value="tiene" style="rhombus;whiteSpace=wrap;html=1;" vertex="1" parent="1">
          <mxGeometry x="70" y="170" width="80" height="50" as="geometry" />
        </mxCell>
        <mxCell id="3rmnvMn9BiSxdyDmNAFS-9" value="&lt;ul&gt;&lt;li&gt;&lt;b&gt;dniPK&lt;/b&gt;&lt;/li&gt;&lt;li&gt;nombre&lt;/li&gt;&lt;li&gt;direccion&lt;/li&gt;&lt;li&gt;numMascotas&lt;/li&gt;&lt;/ul&gt;" style="text;html=1;align=left;verticalAlign=middle;whiteSpace=wrap;rounded=0;" vertex="1" parent="1">
          <mxGeometry x="150" y="85" width="60" height="30" as="geometry" />
        </mxCell>
        <mxCell id="3rmnvMn9BiSxdyDmNAFS-10" value="&lt;ul&gt;&lt;li&gt;&lt;b&gt;&lt;i&gt;&lt;u&gt;idPKFK&lt;/u&gt;&lt;/i&gt;&lt;/b&gt;&lt;/li&gt;&lt;li&gt;raza&lt;/li&gt;&lt;li&gt;pedigri&lt;/li&gt;&lt;/ul&gt;" style="text;html=1;align=left;verticalAlign=middle;whiteSpace=wrap;rounded=0;" vertex="1" parent="1">
          <mxGeometry x="440" y="75" width="60" height="30" as="geometry" />
        </mxCell>
        <mxCell id="3rmnvMn9BiSxdyDmNAFS-11" value="&lt;ul&gt;&lt;li&gt;&lt;b&gt;&lt;i&gt;&lt;u&gt;idPKFK&lt;/u&gt;&lt;/i&gt;&lt;/b&gt;&lt;/li&gt;&lt;li&gt;tipoPlumaje&lt;/li&gt;&lt;li&gt;habitos&lt;/li&gt;&lt;/ul&gt;" style="text;html=1;align=left;verticalAlign=middle;whiteSpace=wrap;rounded=0;" vertex="1" parent="1">
          <mxGeometry x="440" y="170" width="60" height="30" as="geometry" />
        </mxCell>
        <mxCell id="3rmnvMn9BiSxdyDmNAFS-12" value="&lt;ul&gt;&lt;li&gt;&lt;b&gt;&lt;i&gt;&lt;u&gt;idPKFK&lt;/u&gt;&lt;/i&gt;&lt;/b&gt;&lt;/li&gt;&lt;li&gt;tipoEscamas&lt;/li&gt;&lt;/ul&gt;" style="text;html=1;align=left;verticalAlign=middle;whiteSpace=wrap;rounded=0;" vertex="1" parent="1">
          <mxGeometry x="440" y="265" width="60" height="30" as="geometry" />
        </mxCell>
        <mxCell id="3rmnvMn9BiSxdyDmNAFS-13" value="&lt;ul&gt;&lt;li&gt;&lt;b&gt;&lt;i&gt;&lt;u&gt;idPKFK&lt;/u&gt;&lt;/i&gt;&lt;/b&gt;&lt;/li&gt;&lt;li&gt;tipoAgua&lt;/li&gt;&lt;/ul&gt;" style="text;html=1;align=left;verticalAlign=middle;whiteSpace=wrap;rounded=0;" vertex="1" parent="1">
          <mxGeometry x="440" y="365" width="60" height="30" as="geometry" />
        </mxCell>
        <mxCell id="3rmnvMn9BiSxdyDmNAFS-14" value="&lt;ul&gt;&lt;li&gt;&lt;b&gt;idPK&lt;/b&gt;&lt;/li&gt;&lt;li&gt;apodo&lt;/li&gt;&lt;li&gt;nombreVulgar&lt;/li&gt;&lt;li&gt;nombreCientifico&lt;/li&gt;&lt;li&gt;sexo&lt;/li&gt;&lt;li&gt;anioNacimiento&lt;/li&gt;&lt;li&gt;&lt;u&gt;&lt;i&gt;propietarioFK&lt;/i&gt;&lt;/u&gt;&lt;/li&gt;&lt;li&gt;tipo&lt;/li&gt;&lt;/ul&gt;" style="text;html=1;align=left;verticalAlign=middle;whiteSpace=wrap;rounded=0;" vertex="1" parent="1">
          <mxGeometry x="50" y="390" width="60" height="30" as="geometry" />
        </mxCell>
        <mxCell id="3rmnvMn9BiSxdyDmNAFS-15" value="" style="endArrow=none;html=1;rounded=0;entryX=0.5;entryY=1;entryDx=0;entryDy=0;exitX=0.5;exitY=0;exitDx=0;exitDy=0;" edge="1" parent="1" source="3rmnvMn9BiSxdyDmNAFS-8" target="3rmnvMn9BiSxdyDmNAFS-1">
          <mxGeometry width="50" height="50" relative="1" as="geometry">
            <mxPoint x="330" y="260" as="sourcePoint" />
            <mxPoint x="380" y="210" as="targetPoint" />
          </mxGeometry>
        </mxCell>
        <mxCell id="3rmnvMn9BiSxdyDmNAFS-16" value="" style="endArrow=none;html=1;rounded=0;entryX=0.5;entryY=1;entryDx=0;entryDy=0;exitX=0.5;exitY=0;exitDx=0;exitDy=0;" edge="1" parent="1" source="3rmnvMn9BiSxdyDmNAFS-2" target="3rmnvMn9BiSxdyDmNAFS-8">
          <mxGeometry width="50" height="50" relative="1" as="geometry">
            <mxPoint x="120" y="180" as="sourcePoint" />
            <mxPoint x="120" y="140" as="targetPoint" />
          </mxGeometry>
        </mxCell>
        <mxCell id="3rmnvMn9BiSxdyDmNAFS-17" value="" style="endArrow=none;html=1;rounded=0;entryX=0;entryY=0.5;entryDx=0;entryDy=0;exitX=1;exitY=0.5;exitDx=0;exitDy=0;" edge="1" parent="1" source="3rmnvMn9BiSxdyDmNAFS-2" target="3rmnvMn9BiSxdyDmNAFS-3">
          <mxGeometry width="50" height="50" relative="1" as="geometry">
            <mxPoint x="120" y="290" as="sourcePoint" />
            <mxPoint x="120" y="230" as="targetPoint" />
          </mxGeometry>
        </mxCell>
        <mxCell id="3rmnvMn9BiSxdyDmNAFS-18" value="" style="endArrow=none;html=1;rounded=0;entryX=0;entryY=0.5;entryDx=0;entryDy=0;exitX=1;exitY=0.5;exitDx=0;exitDy=0;" edge="1" parent="1" source="3rmnvMn9BiSxdyDmNAFS-3" target="3rmnvMn9BiSxdyDmNAFS-4">
          <mxGeometry width="50" height="50" relative="1" as="geometry">
            <mxPoint x="180" y="320" as="sourcePoint" />
            <mxPoint x="250" y="320" as="targetPoint" />
          </mxGeometry>
        </mxCell>
        <mxCell id="3rmnvMn9BiSxdyDmNAFS-19" value="" style="endArrow=none;html=1;rounded=0;entryX=0;entryY=0.5;entryDx=0;entryDy=0;exitX=1;exitY=0.5;exitDx=0;exitDy=0;" edge="1" parent="1" source="3rmnvMn9BiSxdyDmNAFS-3" target="3rmnvMn9BiSxdyDmNAFS-5">
          <mxGeometry width="50" height="50" relative="1" as="geometry">
            <mxPoint x="280" y="320" as="sourcePoint" />
            <mxPoint x="350" y="100" as="targetPoint" />
          </mxGeometry>
        </mxCell>
        <mxCell id="3rmnvMn9BiSxdyDmNAFS-20" value="" style="endArrow=none;html=1;rounded=0;entryX=0;entryY=0.5;entryDx=0;entryDy=0;exitX=1;exitY=0.5;exitDx=0;exitDy=0;" edge="1" parent="1" source="3rmnvMn9BiSxdyDmNAFS-3" target="3rmnvMn9BiSxdyDmNAFS-6">
          <mxGeometry width="50" height="50" relative="1" as="geometry">
            <mxPoint x="280" y="320" as="sourcePoint" />
            <mxPoint x="350" y="195" as="targetPoint" />
          </mxGeometry>
        </mxCell>
        <mxCell id="3rmnvMn9BiSxdyDmNAFS-21" value="" style="endArrow=none;html=1;rounded=0;entryX=0;entryY=0.5;entryDx=0;entryDy=0;exitX=1;exitY=0.5;exitDx=0;exitDy=0;" edge="1" parent="1" source="3rmnvMn9BiSxdyDmNAFS-3" target="3rmnvMn9BiSxdyDmNAFS-7">
          <mxGeometry width="50" height="50" relative="1" as="geometry">
            <mxPoint x="280" y="320" as="sourcePoint" />
            <mxPoint x="350" y="290" as="targetPoint" />
          </mxGeometry>
        </mxCell>
        <mxCell id="3rmnvMn9BiSxdyDmNAFS-22" value="" style="verticalLabelPosition=bottom;verticalAlign=top;html=1;shape=mxgraph.basic.arc;startAngle=0.3;endAngle=0.7007092454859529;rotation=-88;" vertex="1" parent="1">
          <mxGeometry x="205" y="250" width="100" height="100" as="geometry" />
        </mxCell>
        <mxCell id="3rmnvMn9BiSxdyDmNAFS-23" value="1:1" style="text;html=1;align=center;verticalAlign=middle;whiteSpace=wrap;rounded=0;" vertex="1" parent="1">
          <mxGeometry x="110" y="130" width="60" height="30" as="geometry" />
        </mxCell>
        <mxCell id="3rmnvMn9BiSxdyDmNAFS-24" value="&lt;span style=&quot;color: rgb(0, 0, 0); font-family: Helvetica; font-size: 12px; font-style: normal; font-variant-ligatures: normal; font-variant-caps: normal; font-weight: 400; letter-spacing: normal; orphans: 2; text-align: center; text-indent: 0px; text-transform: none; widows: 2; word-spacing: 0px; -webkit-text-stroke-width: 0px; white-space: normal; background-color: rgb(251, 251, 251); text-decoration-thickness: initial; text-decoration-style: initial; text-decoration-color: initial; display: inline !important; float: none;&quot;&gt;1:N&lt;/span&gt;" style="text;whiteSpace=wrap;html=1;" vertex="1" parent="1">
          <mxGeometry x="130" y="250" width="50" height="40" as="geometry" />
        </mxCell>
        <mxCell id="3rmnvMn9BiSxdyDmNAFS-25" value="&lt;span style=&quot;color: rgb(0, 0, 0); font-family: Helvetica; font-size: 12px; font-style: normal; font-variant-ligatures: normal; font-variant-caps: normal; font-weight: 400; letter-spacing: normal; orphans: 2; text-align: center; text-indent: 0px; text-transform: none; widows: 2; word-spacing: 0px; -webkit-text-stroke-width: 0px; white-space: normal; background-color: rgb(251, 251, 251); text-decoration-thickness: initial; text-decoration-style: initial; text-decoration-color: initial; display: inline !important; float: none;&quot;&gt;1:N&lt;/span&gt;" style="text;whiteSpace=wrap;html=1;" vertex="1" parent="1">
          <mxGeometry x="155" y="180" width="50" height="40" as="geometry" />
        </mxCell>
        <mxCell id="3rmnvMn9BiSxdyDmNAFS-26" value="&lt;span style=&quot;color: rgb(0, 0, 0); font-family: Helvetica; font-size: 12px; font-style: normal; font-variant-ligatures: normal; font-variant-caps: normal; font-weight: 400; letter-spacing: normal; orphans: 2; text-align: center; text-indent: 0px; text-transform: none; widows: 2; word-spacing: 0px; -webkit-text-stroke-width: 0px; white-space: normal; background-color: rgb(251, 251, 251); text-decoration-thickness: initial; text-decoration-style: initial; text-decoration-color: initial; display: inline !important; float: none;&quot;&gt;(0, 1)&lt;/span&gt;" style="text;whiteSpace=wrap;html=1;" vertex="1" parent="1">
          <mxGeometry x="230" y="335" width="50" height="40" as="geometry" />
        </mxCell>
      </root>
    </mxGraphModel>
  </diagram>
</mxfile>
